<svg xmlns="http://www.w3.org/2000/svg" width="841mm" height="594mm" viewBox="0 0 841 594">
<defs><style><![CDATA[
text{font-family:Arial,sans-serif;fill:#3A230A}.title{font-family:Georgia,serif;font-size:14px;letter-spacing:2.5px}.h{font-size:6px;font-weight:700;letter-spacing:.55px}.t{font-size:4.2px}.micro{font-size:3.5px}.cut{fill:none;stroke:#E1261C;stroke-width:.25}.crease{fill:none;stroke:#00AEEF;stroke-width:.22;stroke-dasharray:3 2}.safe{fill:none;stroke:#EC008C;stroke-width:.18;stroke-dasharray:1.5 1.5}.glue{fill:#86A387;fill-opacity:.18;stroke:#638064;stroke-width:.18}.dim{fill:none;stroke:#6A6257;stroke-width:.16;marker-start:url(#a);marker-end:url(#a)}.board{fill:#EEE9C1;stroke:#3A230A;stroke-width:.18}.note{fill:#F4F0D8;stroke:#8DA28C;stroke-width:.2}
]]></style><marker id="a" viewBox="0 0 6 6" refX="3" refY="3" markerWidth="4" markerHeight="4" orient="auto"><path d="M6 0L0 3l6 3" fill="none" stroke="#6A6257" stroke-width=".8"/></marker></defs>
<rect width="841" height="594" fill="#F8F5E7"/>
<text x="24" y="25" class="title">ZARAVI / NECKLACE ARCHIVE DRAWER</text><text x="24" y="35" class="h">FINISHED OUTER SIZE 178 × 178 × 44 MM · FOUR-PANEL RIGID SLEEVE · REV A · SCALE 1:1</text>
<line x1="645" y1="24" x2="663" y2="24" class="cut"/><text x="667" y="25.5" class="micro">CUT</text><line x1="702" y1="24" x2="720" y2="24" class="crease"/><text x="724" y="25.5" class="micro">V-GROOVE / CREASE</text><line x1="645" y1="33" x2="663" y2="33" class="safe"/><text x="667" y="34.5" class="micro">BLEED / SAFE</text><rect x="702" y="30" width="18" height="6" class="glue"/><text x="724" y="34.5" class="micro">GLUE</text>
<!-- sleeve structural -->
<text x="24" y="53" class="h">A · OUTER SLEEVE STRUCTURAL BLANK</text><text x="24" y="60" class="t">1.2 mm FSC compact board; 90° V-groove to 0.25 mm residual. Finished envelope calibrated after wrap: 178 × 178 × 44 mm.</text>
<rect x="21" y="66" width="462" height="184" class="safe"/>
<path d="M24 69H480V247H24Z" class="cut"/><rect x="24" y="69" width="12" height="178" class="glue"/><path d="M36 69V247M214 69V247M258 69V247M436 69V247" class="crease"/>
<text x="30" y="158" class="micro" text-anchor="middle" transform="rotate(-90 30 158)">12 GLUE</text><text x="125" y="158" class="t" text-anchor="middle">BOTTOM 178</text><text x="236" y="158" class="t" text-anchor="middle">SIDE 44</text><text x="347" y="158" class="t" text-anchor="middle">TOP 178</text><text x="458" y="158" class="t" text-anchor="middle">SIDE 44</text>
<line x1="24" y1="257" x2="480" y2="257" class="dim"/><text x="252" y="254.5" class="micro" text-anchor="middle">456.0</text><line x1="490" y1="69" x2="490" y2="247" class="dim"/><text x="494" y="158" class="micro" transform="rotate(90 494 158)" text-anchor="middle">178.0</text>
<!-- paper wrap -->
<text x="515" y="53" class="h">B · SLEEVE PAPER WRAP</text><text x="515" y="60" class="t">120 gsm dyed-through paper. 15 mm turn-in at open ends. Grain parallel to drawer travel.</text>
<path d="M515 69H821V277H515Z" class="cut"/><path d="M515 84H821M515 262H821" class="crease"/><path d="M527 69V277M705 69V277M749 69V277" class="crease"/><path d="M512 66H824V280H512Z" class="safe"/><text x="668" y="80" class="micro" text-anchor="middle">15 MM TURN-IN</text><text x="668" y="273" class="micro" text-anchor="middle">15 MM TURN-IN</text><text x="668" y="174" class="t" text-anchor="middle">WRAP SHOWN IN TWO-UP LENGTH, FINAL SEAM LOCATION TO UNDERSIDE</text>
<!-- tray -->
<text x="24" y="286" class="h">C · INNER DRAWER TRAY NET</text><text x="24" y="293" class="t">400 gsm SBS folding tray, 0.55 mm caliper, reinforced with 1.0 mm perimeter rails after forming. External target 175.4 × 176.0 × 41.2 mm.</text>
<!-- base 175x132 proportional display actual dims: base 175.4x132? Necklace square tray interior should 175.4x175.4. Full cross 257.8 square fits -->
<path class="cut" d="M78 343H92V302H267.4V343H281.4V518.4H267.4V559.4H92V518.4H78ZM92 343H51V518.4H92M267.4 343H308.4V518.4H267.4"/>
<path class="cut" d="M78 343l14 8M78 518.4l14-8M281.4 343l-14 8M281.4 518.4l-14-8"/>
<path class="crease" d="M92 343H267.4M92 518.4H267.4M92 343V518.4M267.4 343V518.4M92 302V343M267.4 302V343M92 518.4V559.4M267.4 518.4V559.4"/>
<rect x="78" y="343" width="14" height="175.4" class="glue"/><rect x="267.4" y="343" width="14" height="175.4" class="glue"/>
<text x="179.7" y="432" class="t" text-anchor="middle">BASE 175.4 × 175.4</text><text x="179.7" y="325" class="t" text-anchor="middle">REAR WALL 41</text><text x="179.7" y="543" class="t" text-anchor="middle">FRONT WALL 41</text><text x="70" y="431" class="t" transform="rotate(-90 70 431)" text-anchor="middle">SIDE WALL 41</text><text x="291" y="431" class="t" transform="rotate(90 291 431)" text-anchor="middle">SIDE WALL 41</text>
<!-- insert -->
<text x="338" y="301" class="h">D · NECKLACE PLATFORM</text><text x="338" y="310" class="t">1.0 mm molded fiber, 0.6 mm plant suede laminate, removable cotton pull-tab beneath.</text>
<rect x="338" y="320" width="173.6" height="173.6" rx="3" class="cut"/><path d="M390 365c28 52 42 79 35 115M460 365c-28 52-42 79-35 115" class="crease"/><circle cx="390" cy="365" r="2.5" class="cut"/><circle cx="460" cy="365" r="2.5" class="cut"/><path d="M418 479h14" class="cut"/><text x="424.8" y="505" class="micro" text-anchor="middle">173.6 × 173.6 · R3 · CHAIN CHANNEL DEPTH 1.5 · PENDANT SLOT 14 × 1.2</text>
<!-- logo and pull zones -->
<text x="538" y="301" class="h">E · VISIBLE FACE / PULL DETAIL</text><rect x="538" y="320" width="178" height="44" class="board"/><path d="M538 320C578 355 626 355 680 320M574 364C607 340 645 340 680 320" fill="none" stroke="#8DA28C" stroke-width=".28"/><rect x="617" y="354" width="20" height="18" fill="#A4530C"/><text x="627" y="384" class="micro" text-anchor="middle">10 MM COTTON PULL · 24 MM EXPOSED LOOP</text><rect x="538" y="399" width="178" height="95" class="note"/><text x="548" y="413" class="h">MANUFACTURING NOTES</text><text x="548" y="424" class="t">1. Prototype with final wrap and adhesive. Drawer running clearance: 1.0 to 1.3 mm per side.</text><text x="548" y="433" class="t">2. Structural grain follows 178 mm travel. Calibrate V-grooves to actual board lot before production.</text><text x="548" y="442" class="t">3. pH-neutral PVA, full coverage. Press wrapped sleeve under flat load for minimum 4 hours.</text><text x="548" y="451" class="t">4. Pull anchor: 45 × 25 mm reinforcement patch trapped under front wall laminate.</text><text x="548" y="460" class="t">5. Top wordmark: 38 mm wide, blind deboss 0.3 mm. Vein rule minimum 0.25 mm.</text><text x="548" y="469" class="t">6. Color: Mineral Sage #8DA28C, ΔE00 ≤ 2 under D50. Copper textile #A4530C.</text><text x="548" y="478" class="t">7. QC: squareness ±0.7 mm; face alignment ±0.6 mm; drawer pull force 1.2 to 2.2 N.</text><text x="548" y="487" class="t">8. Packed jewelry must pass 1 m six-face drop test inside approved e-commerce mailer.</text>
<!-- tolerances -->
<text x="739" y="301" class="h">F · TOLERANCE STACK</text><rect x="739" y="320" width="78" height="174" class="note"/><text x="748" y="335" class="t">Outer W/H</text><text x="808" y="335" class="t" text-anchor="end">±0.7</text><text x="748" y="348" class="t">Drawer W</text><text x="808" y="348" class="t" text-anchor="end">±0.4</text><text x="748" y="361" class="t">Board caliper</text><text x="808" y="361" class="t" text-anchor="end">±0.08</text><text x="748" y="374" class="t">Wrap register</text><text x="808" y="374" class="t" text-anchor="end">±0.6</text><text x="748" y="387" class="t">Deboss register</text><text x="808" y="387" class="t" text-anchor="end">±0.5</text><text x="748" y="400" class="t">Gap per side</text><text x="808" y="400" class="t" text-anchor="end">1.0–1.3</text><path d="M748 418h60" class="crease"/><text x="748" y="430" class="micro">All dimensions in mm.</text><text x="748" y="440" class="micro">Red lines: knife.</text><text x="748" y="450" class="micro">Cyan: V-groove/score.</text><text x="748" y="460" class="micro">Magenta: bleed/safe.</text><text x="748" y="470" class="micro">Green: adhesive.</text>
<!-- title block -->
<rect x="338" y="536" width="479" height="34" fill="#3A230A"/><text x="348" y="550" fill="#EEE9C1" class="h">ZARAVI PACKAGING ENGINEERING</text><text x="348" y="559" fill="#EEE9C1" class="micro">NECKLACE DRAWER · 178 × 178 × 44 MM · REV A · UNITS MM · SCALE 1:1 AT 100% · DO NOT FIT TO PAGE</text><text x="807" y="551" fill="#EEE9C1" class="h" text-anchor="end">03 SEP 2026</text>
</svg>